<svg width="258" height="194" viewBox="0 0 258 194" fill="none" xmlns="http://www.w3.org/2000/svg">
<path d="M81.9242 116.938V2H174.853V116.938" stroke="url(#paint0_linear_6_93)" stroke-width="2.5"/>
<g filter="url(#filter0_d_6_93)">
<rect x="107.575" y="36.2097" width="42.8507" height="58.7464" stroke="url(#paint1_linear_6_93)" stroke-width="2.5" shape-rendering="crispEdges"/>
</g>
<g filter="url(#filter1_d_6_93)">
<rect x="94.1244" y="12.9775" width="69.7512" height="105.211" stroke="url(#paint2_linear_6_93)" stroke-width="2.5" shape-rendering="crispEdges"/>
</g>
<path d="M58.2628 147.971C61.0468 147.971 63.3988 148.467 65.3188 149.459C67.2388 150.451 68.1988 152.067 68.1988 154.307C68.1988 155.715 67.7508 156.803 66.8548 157.571C65.9588 158.339 64.7908 158.723 63.3508 158.723C62.3588 158.723 61.5268 158.547 60.8548 158.195C61.0788 157.395 61.1908 156.467 61.1908 155.411C61.1908 154.131 60.9028 153.139 60.3268 152.435C59.7828 151.699 58.9028 151.331 57.6868 151.331C56.6308 151.331 55.7828 151.619 55.1428 152.195C54.5348 152.771 54.2308 153.587 54.2308 154.643C54.2308 155.731 54.5188 156.707 55.0948 157.571C55.6708 158.403 56.3748 159.123 57.2068 159.731C58.0708 160.339 59.2388 161.075 60.7108 161.939C62.4388 162.963 63.8308 163.875 64.8868 164.675C65.9748 165.475 66.8868 166.483 67.6228 167.699C68.3908 168.915 68.7748 170.371 68.7748 172.067C68.7748 175.235 67.6548 177.635 65.4148 179.267C63.1748 180.867 60.2628 181.667 56.6788 181.667C53.7028 181.667 51.1908 181.139 49.1428 180.083C47.1268 179.027 46.1188 177.315 46.1188 174.947C46.1188 173.539 46.5668 172.403 47.4628 171.539C48.3908 170.675 49.5588 170.243 50.9668 170.243C52.0228 170.243 52.8548 170.419 53.4628 170.771C53.2388 171.763 53.1268 172.611 53.1268 173.315C53.1268 176.643 54.5028 178.307 57.2548 178.307C58.5348 178.307 59.5748 177.955 60.3748 177.251C61.1748 176.515 61.5748 175.539 61.5748 174.323C61.5748 173.235 61.2868 172.275 60.7108 171.443C60.1348 170.579 59.4148 169.843 58.5508 169.235C57.6868 168.595 56.5348 167.843 55.0948 166.979C53.3668 165.955 51.9588 165.043 50.8708 164.243C49.8148 163.443 48.9028 162.435 48.1348 161.219C47.3988 160.003 47.0308 158.563 47.0308 156.899C47.0308 155.011 47.5428 153.395 48.5668 152.051C49.5908 150.707 50.9508 149.699 52.6468 149.027C54.3748 148.323 56.2468 147.971 58.2628 147.971ZM83.8802 148.931V180.611H75.9122V148.931H83.8802ZM92.4909 148.931H100.459V176.675H109.963L109.579 180.611H92.4909V148.931ZM116.195 148.931H124.163V176.675H133.667L133.283 180.611H116.195V148.931ZM162.698 167.459C162.698 170.659 162.362 173.299 161.69 175.379C161.05 177.427 159.898 178.995 158.234 180.083C156.602 181.139 154.33 181.667 151.418 181.667C147.162 181.667 144.122 180.659 142.298 178.643C140.474 176.627 139.562 173.427 139.562 169.043V148.931H147.53V168.515C147.53 170.659 147.626 172.387 147.818 173.699C148.01 175.011 148.442 176.051 149.114 176.819C149.786 177.587 150.778 177.971 152.09 177.971C153.434 177.971 154.426 177.571 155.066 176.771C155.738 175.939 156.17 174.835 156.362 173.459C156.554 172.083 156.65 170.259 156.65 167.987V148.931H162.698V167.459ZM194.287 157.955C194.287 160.131 193.759 161.987 192.703 163.523C191.679 165.059 190.255 166.147 188.431 166.787L196.399 180.611H188.095L180.991 165.875C180.767 165.299 180.655 164.819 180.655 164.435C182.703 164.435 184.159 163.923 185.023 162.899C185.919 161.843 186.367 160.259 186.367 158.147C186.367 154.179 184.751 152.195 181.519 152.195C180.719 152.195 179.887 152.275 179.023 152.435V180.611H171.055V149.267C175.183 148.883 178.735 148.691 181.711 148.691C185.679 148.691 188.767 149.395 190.975 150.803C193.183 152.179 194.287 154.563 194.287 157.955ZM210.086 148.931V180.611H202.118V148.931H210.086Z" fill="white"/>
<defs>
<filter id="filter0_d_6_93" x="102.325" y="34.9597" width="53.3507" height="69.2463" filterUnits="userSpaceOnUse" color-interpolation-filters="sRGB">
<feFlood flood-opacity="0" result="BackgroundImageFix"/>
<feColorMatrix in="SourceAlpha" type="matrix" values="0 0 0 0 0 0 0 0 0 0 0 0 0 0 0 0 0 0 127 0" result="hardAlpha"/>
<feOffset dy="4"/>
<feGaussianBlur stdDeviation="2"/>
<feComposite in2="hardAlpha" operator="out"/>
<feColorMatrix type="matrix" values="0 0 0 0 0 0 0 0 0 0 0 0 0 0 0 0 0 0 0.25 0"/>
<feBlend mode="normal" in2="BackgroundImageFix" result="effect1_dropShadow_6_93"/>
<feBlend mode="normal" in="SourceGraphic" in2="effect1_dropShadow_6_93" result="shape"/>
</filter>
<filter id="filter1_d_6_93" x="88.8744" y="11.7275" width="80.2512" height="115.711" filterUnits="userSpaceOnUse" color-interpolation-filters="sRGB">
<feFlood flood-opacity="0" result="BackgroundImageFix"/>
<feColorMatrix in="SourceAlpha" type="matrix" values="0 0 0 0 0 0 0 0 0 0 0 0 0 0 0 0 0 0 127 0" result="hardAlpha"/>
<feOffset dy="4"/>
<feGaussianBlur stdDeviation="2"/>
<feComposite in2="hardAlpha" operator="out"/>
<feColorMatrix type="matrix" values="0 0 0 0 0 0 0 0 0 0 0 0 0 0 0 0 0 0 0.25 0"/>
<feBlend mode="normal" in2="BackgroundImageFix" result="effect1_dropShadow_6_93"/>
<feBlend mode="normal" in="SourceGraphic" in2="effect1_dropShadow_6_93" result="shape"/>
</filter>
<linearGradient id="paint0_linear_6_93" x1="128.389" y1="2" x2="128.389" y2="116.938" gradientUnits="userSpaceOnUse">
<stop offset="0.776042" stop-color="white"/>
<stop offset="1" stop-color="#CCBDBD" stop-opacity="0.29"/>
</linearGradient>
<linearGradient id="paint1_linear_6_93" x1="129" y1="37.4597" x2="129" y2="93.7062" gradientUnits="userSpaceOnUse">
<stop offset="0.776042" stop-color="white"/>
<stop offset="1" stop-color="#CCBDBD" stop-opacity="0.29"/>
</linearGradient>
<linearGradient id="paint2_linear_6_93" x1="129" y1="14.2275" x2="129" y2="116.938" gradientUnits="userSpaceOnUse">
<stop offset="0.776042" stop-color="white"/>
<stop offset="1" stop-color="#CCBDBD" stop-opacity="0.29"/>
</linearGradient>
</defs>
</svg>
