<svg width="24" height="26" viewBox="0 0 34 36" fill="none" xmlns="http://www.w3.org/2000/svg">
<path d="M16.9954 8.76426C12.1685 8.76426 8.27295 12.889 8.27295 18C8.27295 23.111 12.1685 27.2357 16.9954 27.2357C21.8224 27.2357 25.7179 23.111 25.7179 18C25.7179 12.889 21.8224 8.76426 16.9954 8.76426ZM16.9954 24.0026C13.8739 24.0026 11.3265 21.3052 11.3265 18C11.3265 14.6948 13.8739 11.9974 16.9954 11.9974C20.117 11.9974 22.6644 14.6948 22.6644 18C22.6644 21.3052 20.117 24.0026 16.9954 24.0026ZM26.0751 6.23355C24.9482 6.23355 24.0381 7.1972 24.0381 8.39051C24.0381 9.58381 24.9482 10.5475 26.0751 10.5475C27.2021 10.5475 28.1122 9.58832 28.1122 8.39051C28.1126 8.10715 28.0601 7.82651 27.9579 7.56466C27.8556 7.3028 27.7056 7.06488 27.5163 6.86452C27.3271 6.66415 27.1024 6.50529 26.8551 6.39701C26.6078 6.28874 26.3428 6.23319 26.0751 6.23355ZM33.9981 18C33.9981 15.5143 34.0194 13.0512 33.8875 10.57C33.7557 7.68803 33.1348 5.1303 31.1445 3.02288C29.1499 0.910954 26.7386 0.258013 24.0168 0.118418C21.6693 -0.0211759 19.343 0.0013394 16.9997 0.0013394C14.6521 0.0013394 12.3259 -0.0211759 9.98257 0.118418C7.26079 0.258013 4.8452 0.915457 2.85489 3.02288C0.860329 5.13481 0.243674 7.68803 0.111838 10.57C-0.0199991 13.0557 0.00126497 15.5188 0.00126497 18C0.00126497 20.4812 -0.0199991 22.9488 0.111838 25.43C0.243674 28.312 0.864582 30.8697 2.85489 32.9771C4.84945 35.089 7.26079 35.742 9.98257 35.8816C12.3301 36.0212 14.6564 35.9987 16.9997 35.9987C19.3472 35.9987 21.6735 36.0212 24.0168 35.8816C26.7386 35.742 29.1542 35.0845 31.1445 32.9771C33.139 30.8652 33.7557 28.312 33.8875 25.43C34.0236 22.9488 33.9981 20.4857 33.9981 18ZM30.2556 28.6182C29.9452 29.4377 29.5709 30.0501 28.9713 30.6806C28.3717 31.3155 27.7975 31.7118 27.0235 32.0405C24.7866 32.9816 19.4748 32.77 16.9954 32.77C14.5161 32.77 9.20006 32.9816 6.96309 32.045C6.18908 31.7163 5.6107 31.32 5.01531 30.6851C4.41567 30.0501 4.04142 29.4422 3.73097 28.6227C2.84638 26.2496 3.04627 20.6253 3.04627 18C3.04627 15.3747 2.84638 9.74592 3.73097 7.37732C4.04142 6.55777 4.41567 5.94536 5.01531 5.31493C5.61495 4.6845 6.18908 4.28373 6.96309 3.95501C9.20006 3.01838 14.5161 3.23002 16.9954 3.23002C19.4748 3.23002 24.7908 3.01838 27.0278 3.95501C27.8018 4.28373 28.3802 4.68 28.9756 5.31493C29.5752 5.94986 29.9494 6.55777 30.2599 7.37732C31.1445 9.74592 30.9446 15.3747 30.9446 18C30.9446 20.6253 31.1445 26.2496 30.2556 28.6182Z" fill="#CDCDCD"/>
</svg>
