<svg width="27" height="26" viewBox="0 0 47 32" fill="none" xmlns="http://www.w3.org/2000/svg">
<path d="M44.0625 0H2.9375C2.15843 0 1.41126 0.280951 0.860374 0.781048C0.309486 1.28115 0 1.95942 0 2.66667V29.3333C0 30.0406 0.309486 30.7189 0.860374 31.219C1.41126 31.719 2.15843 32 2.9375 32H44.0625C44.8416 32 45.5887 31.719 46.1396 31.219C46.6905 30.7189 47 30.0406 47 29.3333V2.66667C47 1.95942 46.6905 1.28115 46.1396 0.781048C45.5887 0.280951 44.8416 0 44.0625 0ZM41.8006 29.3333H5.37562L15.6569 19.68L13.5419 17.8267L2.9375 27.7867V4.69333L21.1941 21.1867C21.7444 21.6833 22.489 21.9621 23.265 21.9621C24.041 21.9621 24.7856 21.6833 25.3359 21.1867L44.0625 4.28V27.6133L33.2525 17.8L31.1816 19.68L41.8006 29.3333ZM4.86156 2.66667H41.6831L23.265 19.2933L4.86156 2.66667Z" fill="#CDCDCD"/>
</svg>
