<svg width="26" height="26" viewBox="0 0 36 33" fill="none" xmlns="http://www.w3.org/2000/svg">
<path d="M35.8996 4.97356C35.7999 4.72233 35.631 4.5076 35.4143 4.35653C35.1976 4.20546 34.9428 4.12483 34.6821 4.12483H29.6707C29.0687 3.03148 28.2337 2.09731 27.2302 1.3946C26.2268 0.691903 25.0819 0.239517 23.8841 0.0724566C22.6862 -0.0946038 21.4676 0.0281405 20.3225 0.431192C19.1775 0.834243 18.1366 1.50679 17.2806 2.39679C16.5322 3.15842 15.9373 4.06855 15.5311 5.07361C15.1248 6.07868 14.9153 7.15837 14.9149 8.24917L14.9141 9.30105C8.21036 7.47865 2.7266 1.83785 2.66862 1.77735C2.49857 1.59991 2.28522 1.47441 2.0517 1.41444C1.81817 1.35447 1.57337 1.36233 1.34382 1.43715C1.11426 1.51197 0.908708 1.65091 0.749425 1.83891C0.590141 2.02692 0.483201 2.25681 0.440191 2.5037C-1.00529 10.7993 1.38292 16.3523 3.64084 19.5498C4.77686 21.1621 6.15189 22.5752 7.7142 23.7359C5.20261 26.7007 1.31654 28.2581 1.2742 28.2748C1.08834 28.3475 0.920628 28.4631 0.783589 28.613C0.64655 28.7628 0.543726 28.943 0.482795 29.1402C0.421864 29.3373 0.4044 29.5462 0.431708 29.7514C0.459015 29.9565 0.530389 30.1526 0.640499 30.3249C0.76322 30.5174 1.2579 31.1934 2.46534 31.8233C3.96156 32.6042 5.93334 33 8.32583 33C19.9453 33 29.653 23.6675 30.6452 11.6566L35.614 6.47214C35.7983 6.27983 35.9238 6.03481 35.9747 5.76806C36.0255 5.50131 35.9994 5.22482 35.8996 4.97356ZM28.4359 10.0728C28.2092 10.3092 28.0729 10.6238 28.0525 10.9576C27.392 21.7758 18.727 30.25 8.32583 30.25C6.58599 30.25 5.35317 30.0094 4.50038 29.7206C6.39754 28.6462 9.04058 26.7977 10.7402 24.1377C10.8432 23.9757 10.9121 23.7927 10.9424 23.6009C10.9728 23.4091 10.9639 23.2128 10.9164 23.0248C10.8689 22.8368 10.7838 22.6614 10.6668 22.5102C10.5497 22.359 10.4033 22.2353 10.2372 22.1472C10.2128 22.1343 7.77663 20.8191 5.68954 17.8141C3.31566 14.3958 2.31758 10.2591 2.71079 5.49022C5.31018 7.7167 10.2932 11.3612 16.0138 12.3561C16.2025 12.389 16.3958 12.3785 16.5802 12.3255C16.7646 12.2726 16.9358 12.1783 17.0818 12.0494C17.2278 11.9204 17.3452 11.7599 17.4257 11.5789C17.5063 11.3978 17.5481 11.2007 17.5482 11.0011L17.5505 8.25158V8.2502C17.5645 6.78381 18.1335 5.38265 19.1336 4.35232C20.1337 3.32198 21.4837 2.74606 22.8892 2.75017C23.9034 2.76481 24.8921 3.08377 25.7372 3.66895C26.5823 4.25414 27.2481 5.0808 27.6551 6.05019C27.7576 6.29525 27.9265 6.50378 28.1409 6.65025C28.3553 6.79672 28.6061 6.87477 28.8623 6.87485H31.5006L28.4359 10.0728Z" fill="#CDCDCD"/>
</svg>
